<svg id="Capa_1" enable-background="new 0 0 512.002 512.002" height="512" viewBox="0 0 512.002 512.002" width="512" xmlns="http://www.w3.org/2000/svg"><g><path d="m502.903 96.829c-6.634-7.842-15.924-12.632-26.161-13.487l-360.557-30.106c-10.238-.855-20.192 2.328-28.035 8.961-7.811 6.607-12.594 15.85-13.476 26.037l-7.254 68.056h-28.965c-21.204 0-38.455 17.251-38.455 38.455v225.702c0 21.204 17.251 38.455 38.455 38.455h361.813c21.205 0 38.456-17.251 38.456-38.455v-36.613l12.839 1.072c1.083.09 2.16.135 3.228.135 19.768 0 36.62-15.209 38.294-35.257l18.781-224.919c.854-10.237-2.329-20.193-8.963-28.036zm-464.448 79.461h361.813c10.176 0 18.456 8.279 18.456 18.455v20.566h-398.724v-20.566c0-10.176 8.279-18.455 18.455-18.455zm-18.455 59.021h398.724v41.489h-398.724zm380.268 203.591h-361.813c-10.176 0-18.455-8.279-18.455-18.455v-123.647h398.724v123.647c0 10.176-8.28 18.455-18.456 18.455zm91.667-315.702-18.781 224.919c-.847 10.141-9.788 17.706-19.927 16.856l-14.503-1.211v-169.019c0-21.204-17.251-38.455-38.456-38.455h-312.734l7.039-66.04c.008-.076.015-.151.021-.228.847-10.141 9.783-17.705 19.927-16.855l360.558 30.106c4.913.41 9.372 2.709 12.555 6.473s4.711 8.541 4.301 13.454z"/><path d="m376.873 326.532h-96.242c-5.523 0-10 4.477-10 10v62.789c0 5.523 4.477 10 10 10h96.242c5.523 0 10-4.477 10-10v-62.789c0-5.523-4.477-10-10-10zm-10 62.789h-76.242v-42.789h76.242z"/></g></svg>