<svg width="30" height="30" viewBox="0 0 30 30" fill="none" xmlns="http://www.w3.org/2000/svg">
<path d="M10.0014 15C10.0014 12.2387 12.2393 9.9996 15.0006 9.9996C17.7619 9.9996 20.001 12.2387 20.001 15C20.001 17.7613 17.7619 20.0004 15.0006 20.0004C12.2393 20.0004 10.0014 17.7613 10.0014 15ZM7.29829 15C7.29829 19.254 10.7466 22.7023 15.0006 22.7023C19.2546 22.7023 22.7029 19.254 22.7029 15C22.7029 10.746 19.2546 7.29768 15.0006 7.29768C10.7466 7.29768 7.29829 10.746 7.29829 15ZM21.2078 6.99228C21.2077 7.34829 21.3131 7.69634 21.5108 7.99243C21.7085 8.28852 21.9895 8.51934 22.3184 8.65571C22.6472 8.79208 23.0091 8.82787 23.3583 8.75855C23.7075 8.68924 24.0283 8.51793 24.2801 8.2663C24.532 8.01467 24.7035 7.69401 24.7731 7.34487C24.8427 6.99573 24.8072 6.6338 24.6711 6.30483C24.535 5.97587 24.3044 5.69466 24.0085 5.49675C23.7125 5.29885 23.3646 5.19314 23.0086 5.193H23.0078C22.5307 5.19322 22.0731 5.38284 21.7356 5.7202C21.3981 6.05756 21.2083 6.51508 21.2078 6.99228ZM8.94061 27.2096C7.47817 27.143 6.68329 26.8994 6.15505 26.6936C5.45473 26.421 4.95505 26.0963 4.42969 25.5716C3.90433 25.047 3.57913 24.5478 3.30769 23.8475C3.10177 23.3195 2.85817 22.5244 2.79169 21.0619C2.71897 19.4808 2.70445 19.0058 2.70445 15.0001C2.70445 10.9944 2.72017 10.5208 2.79169 8.93832C2.85829 7.47588 3.10369 6.68232 3.30769 6.15276C3.58033 5.45244 3.90505 4.95276 4.42969 4.4274C4.95433 3.90204 5.45353 3.57684 6.15505 3.3054C6.68305 3.09948 7.47817 2.85588 8.94061 2.7894C10.5217 2.71668 10.9967 2.70216 15.0006 2.70216C19.0045 2.70216 19.48 2.71788 21.0624 2.7894C22.5248 2.856 23.3184 3.1014 23.848 3.3054C24.5483 3.57684 25.048 3.90276 25.5733 4.4274C26.0987 4.95204 26.4227 5.45244 26.6953 6.15276C26.9012 6.68076 27.1448 7.47588 27.2113 8.93832C27.284 10.5208 27.2986 10.9944 27.2986 15.0001C27.2986 19.0058 27.284 19.4795 27.2113 21.0619C27.1447 22.5244 26.8999 23.3192 26.6953 23.8475C26.4227 24.5478 26.098 25.0475 25.5733 25.5716C25.0487 26.0958 24.5483 26.421 23.848 26.6936C23.32 26.8996 22.5248 27.1432 21.0624 27.2096C19.4813 27.2824 19.0063 27.2969 15.0006 27.2969C10.9949 27.2969 10.5212 27.2824 8.94061 27.2096ZM8.81641 0.09084C7.21957 0.16356 6.12841 0.41676 5.17549 0.78756C4.18861 1.17048 3.35317 1.6842 2.51833 2.51772C1.68349 3.35124 1.17109 4.188 0.78817 5.17488C0.41737 6.1284 0.16417 7.21896 0.0914503 8.8158C0.0175304 10.4152 0.000610352 10.9265 0.000610352 15C0.000610352 19.0735 0.0175304 19.5848 0.0914503 21.1842C0.16417 22.7812 0.41737 23.8716 0.78817 24.8251C1.17109 25.8114 1.68361 26.6491 2.51833 27.4823C3.35305 28.3154 4.18861 28.8284 5.17549 29.2124C6.13021 29.5832 7.21957 29.8364 8.81641 29.9092C10.4166 29.9819 10.9271 30 15.0006 30C19.0741 30 19.5854 29.9831 21.1848 29.9092C22.7818 29.8364 23.8722 29.5832 24.8257 29.2124C25.812 28.8284 26.648 28.3158 27.4829 27.4823C28.3177 26.6488 28.8291 25.8114 29.213 24.8251C29.5838 23.8716 29.8382 22.781 29.9098 21.1842C29.9825 19.5836 29.9994 19.0735 29.9994 15C29.9994 10.9265 29.9825 10.4152 29.9098 8.8158C29.837 7.21884 29.5838 6.1278 29.213 5.17488C28.8291 4.1886 28.3164 3.35256 27.4829 2.51772C26.6494 1.68288 25.812 1.17048 24.8269 0.78756C23.8722 0.41676 22.7816 0.16236 21.186 0.09084C19.5866 0.01812 19.0753 0 15.0018 0C10.9283 0 10.4166 0.01692 8.81641 0.09084Z" fill="white"/>
</svg>
