<svg width="27" height="26" viewBox="0 0 27 26" fill="none" xmlns="http://www.w3.org/2000/svg">
<path d="M26.325 25.325C24.75 25.2875 23.2125 25.2875 21.6375 25.325C21.3 25.325 21.225 25.25 21.225 24.9125C21.225 22.1375 21.225 19.325 21.225 16.55C21.225 15.9125 21.1875 15.275 21 14.675C20.4375 12.725 18.1875 12.0125 16.575 13.325C15.7125 14 15.375 14.9375 15.375 16.0625C15.375 18.6875 15.375 21.3125 15.375 23.9375C15.375 24.275 15.3375 24.6125 15.375 24.9875C15.4125 25.2875 15.2625 25.3625 15 25.325C13.3875 25.325 11.8125 25.325 10.2 25.325C9.90001 25.325 9.82501 25.25 9.82501 24.95C9.86251 22.5875 9.86251 20.225 9.86251 17.825C9.86251 14.9 9.86251 11.975 9.82501 9.08752C9.82501 8.75002 9.90001 8.67502 10.2 8.67502C11.8125 8.67502 13.3875 8.67502 15 8.67502C15.3 8.67502 15.375 8.75002 15.375 9.05002C15.375 9.65002 15.375 10.25 15.375 10.9625C15.4875 10.85 15.525 10.8125 15.5625 10.775C17.025 8.63752 19.0875 8.03752 21.525 8.41252C24.3375 8.86252 26.1375 10.8125 26.5875 13.8125C26.7 14.525 26.7375 15.2375 26.7375 15.95C26.7375 18.95 26.7375 21.9125 26.7375 24.9125C26.7375 25.2125 26.6625 25.325 26.325 25.325Z" fill="white"/>
<path d="M6.825 17C6.825 19.625 6.825 22.25 6.825 24.875C6.825 25.2125 6.75 25.325 6.4125 25.325C4.8375 25.2875 3.2625 25.325 1.6875 25.325C1.3875 25.325 1.3125 25.25 1.3125 24.95C1.3125 19.6625 1.3125 14.3375 1.3125 9.05002C1.3125 8.78752 1.3875 8.67502 1.6875 8.67502C3.3 8.67502 4.9125 8.67502 6.525 8.67502C6.8625 8.67502 6.9 8.78752 6.9 9.08752C6.825 11.7125 6.825 14.3375 6.825 17Z" fill="white"/>
<path d="M7.08751 4.32502C6.71251 5.82502 5.17501 6.68752 3.41251 6.38752C1.53751 6.08752 0.487507 4.25002 1.16251 2.45002C1.61251 1.32502 2.70001 0.65002 4.08751 0.68752C6.18751 0.65002 7.57501 2.33752 7.08751 4.32502Z" fill="white"/>
</svg>
