<?xml version="1.0" standalone="no"?>
<!DOCTYPE svg PUBLIC "-//W3C//DTD SVG 20010904//EN"
 "http://www.w3.org/TR/2001/REC-SVG-20010904/DTD/svg10.dtd">
<svg version="1.0" xmlns="http://www.w3.org/2000/svg"
 width="456.000000pt" height="456.000000pt" viewBox="0 0 456.000000 456.000000"
 preserveAspectRatio="xMidYMid meet">
<metadata>
Created by potrace 1.11, written by Peter Selinger 2001-2013
</metadata>
<g transform="translate(0.000000,456.000000) scale(0.100000,-0.100000)"
fill="#000000" stroke="none">
<path d="M0 2280 l0 -2230 2275 0 2275 0 0 2230 0 2230 -2275 0 -2275 0 0
-2230z m2241 1639 c31 -16 42 -55 24 -88 -34 -67 -125 -46 -125 29 0 54 53 85
101 59z m67 -194 c144 -34 280 -133 346 -251 54 -97 93 -295 56 -285 -8 2 -28
7 -44 10 -28 6 -30 11 -42 76 -23 142 -117 265 -247 326 -62 29 -84 34 -165
37 -82 4 -103 1 -165 -22 -125 -46 -219 -141 -263 -265 -13 -36 -24 -84 -24
-106 0 -40 -1 -41 -45 -51 -25 -6 -48 -7 -51 -2 -10 16 9 135 32 196 94 252
357 397 612 337z m-40 -201 c128 -53 168 -203 82 -305 l-27 -33 -36 23 c-21
12 -37 25 -37 28 0 3 11 18 25 35 58 68 13 168 -75 168 -55 0 -79 -14 -96 -57
-27 -64 -7 -101 96 -177 36 -27 67 -50 69 -52 7 -6 -51 -64 -63 -63 -25 1
-162 117 -183 154 -43 75 -23 185 44 248 50 47 133 60 201 31z m-355 -378 c55
-20 113 -63 148 -110 l30 -41 -53 -48 c-102 -91 -98 -90 -140 -54 l-37 31 46
41 c50 45 50 55 0 82 -47 24 -134 21 -190 -6 -52 -25 -101 -92 -112 -154 -15
-80 37 -177 118 -218 32 -17 54 -20 107 -17 66 3 69 5 136 63 38 32 76 66 85
75 8 8 44 40 79 70 73 63 225 196 255 223 11 10 43 31 70 45 43 23 62 27 135
27 70 0 93 -4 130 -24 112 -58 170 -153 170 -280 0 -80 -14 -119 -68 -187 -79
-100 -217 -139 -334 -94 -59 22 -152 97 -163 130 -4 14 5 29 37 57 94 81 167
163 193 212 25 50 27 52 58 46 18 -4 35 -9 40 -12 31 -18 -32 -130 -125 -221
-43 -42 -78 -79 -78 -83 0 -3 17 -15 39 -27 88 -50 215 -18 274 68 107 155
-34 360 -221 320 -53 -12 -109 -56 -382 -305 -196 -180 -228 -198 -345 -199
-71 0 -87 4 -140 31 -220 115 -217 428 5 543 58 31 170 38 233 16z m1479 -888
l3 -53 53 -3 52 -3 0 -35 0 -34 -55 0 -55 0 0 -134 c0 -149 2 -153 65 -158 38
-3 40 -4 40 -38 0 -31 -3 -35 -28 -38 -15 -2 -51 2 -80 8 -80 16 -87 34 -87
214 l0 146 -25 0 c-22 0 -25 4 -25 34 0 28 4 35 23 38 19 3 22 10 25 56 l3 52
44 0 44 0 3 -52z m751 38 c25 -19 25 -73 1 -91 -44 -33 -94 -8 -94 48 0 52 50
75 93 43z m-3378 -121 c63 -47 70 -71 70 -250 l0 -160 -42 -3 -43 -3 -1 128
c-1 70 -1 132 0 136 1 5 -6 24 -15 43 -28 58 -94 80 -152 50 -45 -23 -52 -49
-54 -206 l-3 -145 -45 0 -45 0 -3 218 -2 217 50 0 c38 0 50 -4 50 -15 0 -19 3
-19 48 6 52 29 139 22 187 -16z m414 29 c28 -6 31 -10 31 -45 l0 -39 -43 6
c-138 19 -209 -160 -102 -255 66 -57 168 -34 201 45 9 22 14 74 14 158 l0 124
45 4 45 3 0 -222 0 -223 -45 0 c-44 0 -45 1 -45 31 l0 30 -36 -28 c-30 -22
-49 -28 -104 -31 -76 -5 -107 7 -158 59 -77 79 -82 227 -9 314 50 61 122 85
206 69z m606 -8 c19 -8 47 -27 61 -41 l26 -26 15 21 c21 30 90 60 139 60 57 0
124 -37 151 -86 21 -36 23 -52 23 -202 l0 -163 -42 3 -43 3 -5 150 c-5 164
-13 187 -64 205 -40 14 -62 13 -97 -6 -48 -24 -59 -65 -59 -219 l0 -136 -42 3
-43 3 -5 150 c-6 169 -12 189 -72 207 -52 15 -97 1 -125 -41 -21 -31 -23 -45
-23 -177 l0 -144 -45 0 -45 0 0 220 0 220 45 0 c38 0 45 -3 45 -20 0 -11 5
-20 10 -20 6 0 10 4 10 9 0 14 72 40 113 40 21 1 53 -6 72 -13z m769 4 c21 -8
26 -16 26 -43 l0 -33 -61 1 c-57 0 -62 -2 -94 -37 -117 -127 26 -319 166 -224
47 32 59 76 59 220 l0 116 45 0 45 0 0 -220 0 -220 -45 0 c-43 0 -45 1 -45 30
l0 30 -47 -30 c-38 -25 -58 -30 -105 -30 -61 0 -118 21 -150 57 -54 59 -74
185 -42 261 41 99 158 156 248 122z m543 -9 c44 -20 67 -48 78 -93 7 -27 6
-28 -35 -28 -34 0 -46 5 -67 30 -31 37 -91 42 -123 10 -39 -39 -19 -59 92 -95
113 -37 146 -72 138 -150 -3 -30 -27 -64 -63 -85 -39 -24 -138 -27 -190 -5
-43 18 -87 69 -87 101 0 22 4 24 44 24 36 0 46 -4 51 -20 7 -23 53 -50 84 -50
56 0 98 48 68 77 -9 9 -57 30 -108 47 -80 26 -97 36 -117 66 -28 41 -26 98 5
132 48 55 154 73 230 39z m758 0 c79 -37 124 -107 125 -193 l0 -48 -130 0
-130 0 0 35 0 35 80 0 c76 0 80 1 80 23 -1 48 -54 87 -120 87 -34 0 -48 -6
-76 -34 -33 -33 -36 -44 -36 -121 0 -19 0 -44 1 -54 2 -29 56 -78 95 -85 40
-8 99 13 113 39 7 12 21 15 63 13 l53 -3 -35 -45 c-48 -63 -94 -83 -183 -78
-59 3 -79 8 -113 32 -112 77 -124 265 -24 359 59 56 163 72 237 38z m-2145
-717 c0 -9 -5 -14 -12 -12 -18 6 -21 28 -4 28 9 0 16 -7 16 -16z m-110 -3 c0
-6 -15 -11 -32 -13 -25 -2 -34 -8 -36 -25 -3 -20 1 -23 27 -23 17 0 31 -4 31
-10 0 -5 -13 -10 -30 -10 -28 0 -30 -3 -30 -35 0 -19 -4 -35 -10 -35 -6 0 -10
33 -10 80 l0 80 45 0 c25 0 45 -4 45 -9z m110 -86 c0 -51 -3 -65 -15 -65 -12
0 -15 13 -15 58 0 32 3 62 7 65 17 17 23 2 23 -58z m196 40 c19 -26 19 -105 0
-105 -11 0 -16 14 -18 48 -3 43 -5 47 -28 47 -23 0 -25 -4 -28 -47 -2 -34 -7
-48 -18 -48 -10 0 -14 14 -14 58 0 32 2 61 4 63 3 3 24 4 46 4 29 0 46 -6 56
-20z m224 -41 l0 -62 -52 1 c-45 2 -54 6 -67 28 -18 32 -8 77 19 87 11 4 38 7
60 7 l40 0 0 -61z m196 41 c19 -26 19 -105 0 -105 -11 0 -16 14 -18 48 -3 43
-5 47 -28 47 -23 0 -25 -4 -28 -47 -2 -34 -7 -48 -18 -48 -10 0 -14 14 -14 58
0 32 2 61 4 63 3 3 24 4 46 4 29 0 46 -6 56 -20z m192 9 c29 -20 19 -37 -13
-22 -35 16 -55 4 -55 -32 0 -35 23 -49 51 -32 30 19 44 14 24 -8 -36 -40 -105
-14 -105 40 0 38 26 66 65 69 6 1 21 -6 33 -15z m210 -12 c23 -31 10 -47 -42
-52 -44 -4 -47 -7 -32 -19 13 -11 22 -12 43 -2 30 14 41 8 23 -14 -15 -18 -60
-20 -83 -2 -9 6 -19 24 -22 39 -10 39 34 83 73 73 15 -3 33 -14 40 -23z m170
16 c21 -21 13 -30 -18 -23 -39 9 -39 -9 0 -25 38 -16 44 -25 30 -50 -16 -30
-90 -25 -90 6 0 17 5 17 30 2 15 -10 22 -10 32 0 9 9 3 15 -25 27 -25 10 -37
22 -37 35 0 33 54 52 78 28z"/>
<path d="M4072 2288 c-7 -7 -12 -25 -12 -40 0 -34 41 -59 68 -41 21 12 28 59
11 79 -14 17 -51 18 -67 2z m55 -37 c-2 -23 -7 -28 -24 -27 -18 1 -23 7 -23
29 0 22 4 27 25 27 21 0 24 -4 22 -29z"/>
<path d="M4100 2259 c0 -5 5 -7 10 -4 6 3 10 8 10 11 0 2 -4 4 -10 4 -5 0 -10
-5 -10 -11z"/>
<path d="M2037 1414 c-13 -13 -7 -51 9 -65 23 -19 49 1 49 37 0 24 -5 30 -25
32 -14 2 -29 0 -33 -4z"/>
<path d="M2645 1411 c-7 -13 17 -24 40 -19 9 1 16 8 16 13 0 14 -48 19 -56 6z"/>
</g>
</svg>
